<svg width="21" height="28" viewBox="0 0 21 28" fill="none" xmlns="http://www.w3.org/2000/svg">
<path fill-rule="evenodd" clip-rule="evenodd" d="M5.61382 14.8751C3.272 11.5419 3.76887 7.83685 6.48063 5.56141C9.19142 3.28679 13.3928 3.80861 15.5649 6.39721C16.7352 7.79192 17.0132 9.67646 16.6236 11.3612C16.4021 12.3191 16.505 13.3808 17.1804 14.0953C18.1342 15.1043 19.7844 15.0287 20.3023 13.7404C21.6017 10.5078 21.0914 6.56175 18.7269 3.74392C15.1879 -0.473745 8.40396 -1.41875 3.83824 2.41234C-0.712313 6.23071 -1.20154 12.4222 2.29043 17.3244C2.31643 17.3609 2.34362 17.3966 2.37196 17.4313L10.5171 26.6312C11.2508 27.4599 12.5078 27.5616 13.3651 26.8616C14.2724 26.1208 14.3812 24.774 13.6046 23.8971L5.61382 14.8751ZM10.1854 12.4483L12.8531 10.0463L18.1654 15.9462C18.8287 16.6828 18.7692 17.8177 18.0325 18.481C17.2959 19.1443 16.161 19.0848 15.4977 18.3482L10.1854 12.4483ZM7.17428 14.0752L9.28033 12.1789L11.3546 14.4826C11.8782 15.0641 11.8313 15.9601 11.2497 16.4837C10.6681 17.0074 9.77216 16.9604 9.24852 16.3789L7.17428 14.0752Z" fill="#13CBBF"/>
</svg>
